<?xml version="1.0" encoding="utf-8"?>
<!-- Generator: Adobe Illustrator 23.1.0, SVG Export Plug-In . SVG Version: 6.00 Build 0)  -->
<!DOCTYPE svg PUBLIC "-//W3C//DTD SVG 1.1//EN" "http://www.w3.org/Graphics/SVG/1.1/DTD/svg11.dtd" [
	<!ENTITY ns_extend "http://ns.adobe.com/Extensibility/1.0/">
	<!ENTITY ns_ai "http://ns.adobe.com/AdobeIllustrator/10.0/">
	<!ENTITY ns_graphs "http://ns.adobe.com/Graphs/1.0/">
	<!ENTITY ns_vars "http://ns.adobe.com/Variables/1.0/">
	<!ENTITY ns_imrep "http://ns.adobe.com/ImageReplacement/1.0/">
	<!ENTITY ns_sfw "http://ns.adobe.com/SaveForWeb/1.0/">
	<!ENTITY ns_custom "http://ns.adobe.com/GenericCustomNamespace/1.0/">
	<!ENTITY ns_adobe_xpath "http://ns.adobe.com/XPath/1.0/">
]>
<svg version="1.1" id="Warstwa_1" xmlns:x="&ns_extend;" xmlns:i="&ns_ai;" xmlns:graph="&ns_graphs;"
	 xmlns="http://www.w3.org/2000/svg" xmlns:xlink="http://www.w3.org/1999/xlink" x="0px" y="0px" viewBox="0 0 291.9 53"
	 style="enable-background:new 0 0 291.9 53;" xml:space="preserve">
<style type="text/css">
	.st0{fill-rule:evenodd;clip-rule:evenodd;fill:#FFFFFF;}
	.st1{fill:#FFFFFF;}
</style>
<metadata>
	<sfw  xmlns="&ns_sfw;">
		<slices></slices>
		<sliceSourceBounds  bottomLeftOrigin="true" height="16.2" width="228.7" x="31.6" y="18.4"></sliceSourceBounds>
	</sfw>
</metadata>
<g>
	<path class="st0" d="M158.2,20.2c4,0,7.7,0,11.7,0v2.5h-3.7c-0.4,0-0.7,0.3-0.7,0.7v9.9h-2.8v-9.8c0-0.4-0.3-0.7-0.7-0.7h-3.7V20.2
		z"/>
	<path class="st0" d="M172,20.2v13.1h2.8v-4.9h3.5l2.5,4.9h2.8L181,28c1.5-0.6,2.5-2.1,2.5-3.7c0-2.2-1.8-4-4-4.1
		C177,20.2,174.5,20.2,172,20.2L172,20.2z M174.8,25.8v-2.4c0-0.4,0.3-0.7,0.7-0.7h4c0.2,0,0.5,0,0.7,0.2c0.5,0.2,0.9,0.8,0.9,1.4
		c0,0.9-0.7,1.5-1.5,1.5H174.8z"/>
	<path class="st0" d="M66,19.7c1.9,0,3.7,0.7,5,1.9l-1.9,1.9c-0.8-0.7-1.9-1.2-3.1-1.2c-2.5,0-4.5,1.9-4.5,4.3c0,2.3,2,4.3,4.5,4.3
		c0.9,0,1.8-0.3,2.5-0.7V27H71v4.7c-1.3,1.2-3.1,1.9-5,1.9c-4,0-7.3-3.1-7.3-6.9C58.7,22.8,62,19.7,66,19.7L66,19.7z"/>
	<path class="st0" d="M92,19.7c4,0,7.3,3.1,7.3,6.9c0,3.8-3.3,6.9-7.3,6.9s-7.3-3.1-7.3-6.9C84.7,22.8,88,19.7,92,19.7L92,19.7z
		 M92,22.4c2.5,0,4.5,1.9,4.5,4.3c0,2.3-2,4.3-4.5,4.3c-2.5,0-4.5-1.9-4.5-4.3C87.5,24.3,89.5,22.4,92,22.4L92,22.4z"/>
	<path class="st0" d="M120.1,19.7c4,0,7.3,3.1,7.3,6.9c0,3.8-3.3,6.9-7.3,6.9c-4,0-7.3-3.1-7.3-6.9
		C112.8,22.8,116.1,19.7,120.1,19.7L120.1,19.7z M120.1,22.4c2.5,0,4.5,1.9,4.5,4.3c0,2.3-2,4.3-4.5,4.3c-2.5,0-4.5-1.9-4.5-4.3
		C115.6,24.3,117.6,22.4,120.1,22.4L120.1,22.4z"/>
	<path class="st0" d="M73.3,20.2h9.4v2.5h-6.9v2.7h6.9V28h-6.9v2.7h6.9v2.5h-9.4C73.3,28.9,73.3,24.5,73.3,20.2L73.3,20.2z"/>
	<path class="st0" d="M101.3,28.4c2.7-2.7,5.5-5.5,8.2-8.2h3.6l-6,6c-0.3,0.3-0.3,0.7,0,1l6.1,6.1h-3.6l-5.5-5.5v5.5h-2.8V28.4z"/>
	<path class="st0" d="M200.4,28.4c2.7-2.7,5.5-5.5,8.2-8.2h3.6l-6,6c-0.3,0.3-0.3,0.7,0,1l6.1,6.1h-3.6l-5.5-5.5v5.5h-2.8V28.4z"/>
	<rect x="101.3" y="20.2" class="st0" width="2.8" height="4"/>
	<rect x="200.4" y="20.2" class="st0" width="2.8" height="4"/>
	<path class="st0" d="M129.6,33.2h2.8v-9.9l6.3,9.9c1.3,0,2.7,0,4,0V20.2h-2.8V30l-6.3-9.8c-1.4,0-2.7,0-4.1,0V33.2z"/>
	<path class="st1" d="M154.1,24.1c0-0.6-0.8-1.1-1.7-1.4c-0.5-0.1-1-0.2-1.5-0.2c-0.5,0-1,0.1-1.5,0.2c-0.9,0.2-1.5,0.6-1.5,1.2
		c0,0.8,1.6,1.1,3.2,1.4c2.8,0.5,5.6,1,5.6,4.2c0,2-1.5,3.3-3.5,3.8c-0.7,0.2-1.4,0.3-2.2,0.2c-0.7,0-1.5-0.1-2.2-0.3
		c-2.1-0.5-3.8-1.9-3.8-4h2.7c0,0.6,0.8,1.1,1.7,1.4c0.5,0.1,1,0.2,1.5,0.2c0.5,0,1-0.1,1.5-0.2c0.9-0.2,1.5-0.6,1.5-1.2
		c0-0.9-1.7-1.2-3.4-1.5c-2.8-0.5-5.5-1-5.5-4.1c0-2,1.6-3.3,3.6-3.8c0.7-0.2,1.4-0.2,2.2-0.2c0.7,0,1.5,0.1,2.2,0.3
		c2.1,0.5,3.7,1.9,3.7,4H154.1z"/>
	<path class="st1" d="M197.7,20.2v8.2c0,1.1-0.4,2.1-1,3c-0.6,0.9-1.5,1.5-2.6,1.9c-0.6,0.2-1.7,0.3-2.7,0.3c-1,0-2.1-0.1-2.7-0.3
		c-1-0.3-1.9-1-2.5-1.9c-0.6-0.8-1-1.9-1-3v-8.2h2.8v8.2c0,1,0.7,1.9,1.6,2.3c0.3,0.1,1,0.2,1.8,0.2c0.8,0,1.5-0.1,1.9-0.2
		c1-0.3,1.6-1.2,1.6-2.3v-8.2H197.7z"/>
	<path class="st1" d="M47.7,21.3H39c-1.2,0-2.4,0.5-3.2,1.3c-0.8,0.8-1.3,1.9-1.3,3.2v1.4c0,1.2,0.5,2.4,1.3,3.2
		c0.8,0.8,1.9,1.3,3.2,1.3h2.8h0.8c0.4,0,0.7,0.3,0.7,0.7v1.1v1.1H39c-2.1,0-3.9-0.8-5.2-2.2c-1.3-1.3-2.2-3.2-2.2-5.2v-1.4
		c0-2,0.8-3.9,2.2-5.2c1.3-1.3,3.2-2.2,5.2-2.2h7.2H47c0.4,0,0.7,0.3,0.7,0.7v1.1V21.3z"/>
	<path class="st1" d="M46.7,34.6v-2.2c0-1.2-0.5-2.4-1.3-3.2c-0.8-0.8-1.9-1.3-3.2-1.3h-3.7V25h12.1h0.8c0.4,0,0.7,0.3,0.7,0.7v1.1
		v1.1h-3.9c1,1.2,1.5,2.8,1.5,4.5v2.2H46.7z"/>
	<path class="st0" d="M212.8,20.2c4,0,7.7,0,11.7,0v2.5h-3.7c-0.4,0-0.7,0.3-0.7,0.7v9.9h-2.8v-9.8c0-0.4-0.3-0.7-0.7-0.7h-3.7V20.2
		z"/>
	<path class="st0" d="M238.2,19.7c4,0,7.3,3.1,7.3,6.9c0,3.8-3.3,6.9-7.3,6.9c-4,0-7.3-3.1-7.3-6.9
		C230.9,22.8,234.1,19.7,238.2,19.7L238.2,19.7z M238.2,22.4c2.5,0,4.5,1.9,4.5,4.3c0,2.3-2,4.3-4.5,4.3c-2.5,0-4.5-1.9-4.5-4.3
		C233.7,24.3,235.7,22.4,238.2,22.4L238.2,22.4z"/>
	<path class="st0" d="M247.1,33.2h2.8v-9.9l6.3,9.9c1.3,0,2.7,0,4,0V20.2h-2.8V30l-6.3-9.8c-1.4,0-2.7,0-4.1,0V33.2z"/>
	<rect x="225.9" y="20.2" class="st0" width="2.8" height="13.1"/>
</g>
</svg>
